<?xml version="1.0" encoding="UTF-8"?>
<svg id="Capa_1" data-name="Capa 1" xmlns="http://www.w3.org/2000/svg" viewBox="0 0 800 800">
  <defs>
    <style>
      .cls-1 {
        fill: #000;
      }

      .cls-1, .cls-2 {
        stroke-width: 0px;
      }

      .cls-2 {
        fill: #ffdc31;
      }
    </style>
  </defs>
  <polygon class="cls-2" points="133.33 485.52 133.33 400 169.18 309.06 210.67 246.83 272.37 201.35 308 184.91 374.22 171.04 417.31 171.04 469.96 179.81 512.25 194.97 556.93 220.5 592.83 251.61 627.93 296.8 659.05 368.89 668.95 440 653.33 538.83 635.11 546.81 146.67 539.63 133.33 485.52"/>
  <path class="cls-1" d="M400,146.67c7.37,0,13.33-5.96,13.33-13.33V53.33c0-7.37-5.96-13.33-13.33-13.33s-13.33,5.96-13.33,13.33v80c0,7.37,5.96,13.33,13.33,13.33Z"/>
  <path class="cls-1" d="M693.33,440c0,7.37,5.96,13.33,13.33,13.33h80c7.37,0,13.33-5.96,13.33-13.33s-5.96-13.33-13.33-13.33h-80c-7.37,0-13.33,5.96-13.33,13.33Z"/>
  <path class="cls-1" d="M13.33,453.33h80c7.37,0,13.33-5.96,13.33-13.33s-5.96-13.33-13.33-13.33H13.33c-7.37,0-13.33,5.96-13.33,13.33s5.96,13.33,13.33,13.33Z"/>
  <path class="cls-1" d="M616.85,236.48c3.41,0,6.83-1.31,9.43-3.91l76.48-76.48c5.21-5.21,5.21-13.64,0-18.85s-13.64-5.21-18.85,0l-76.48,76.48c-5.21,5.21-5.21,13.64,0,18.85,2.6,2.61,6.01,3.91,9.43,3.91Z"/>
  <path class="cls-1" d="M173.72,232.57c2.6,2.6,6.01,3.91,9.43,3.91s6.83-1.31,9.43-3.91c5.21-5.21,5.21-13.64,0-18.85l-76.48-76.48c-5.21-5.21-13.64-5.21-18.85,0s-5.21,13.64,0,18.85l76.48,76.48Z"/>
  <path class="cls-1" d="M670.01,325.39c2.16,5.08,7.09,8.12,12.28,8.12,1.75,0,3.52-.33,5.21-1.05l36.83-15.64c6.79-2.89,9.95-10.72,7.07-17.49-2.89-6.79-10.77-9.91-17.49-7.07l-36.83,15.64c-6.79,2.91-9.95,10.72-7.07,17.49Z"/>
  <path class="cls-1" d="M73.59,322.49l37.08,14.99c1.64.67,3.33.97,5,.97,5.28,0,10.27-3.15,12.36-8.33,2.76-6.84-.53-14.6-7.36-17.36l-37.08-14.99c-6.83-2.76-14.6.55-17.36,7.36-2.76,6.83.53,14.59,7.36,17.36Z"/>
  <path class="cls-1" d="M267.91,162.92c2.16,5.08,7.09,8.12,12.28,8.12,1.75,0,3.52-.33,5.21-1.05,6.79-2.89,9.95-10.72,7.07-17.49l-15.64-36.83c-2.89-6.79-10.79-9.92-17.49-7.07-6.79,2.89-9.95,10.72-7.07,17.49l15.64,36.83Z"/>
  <path class="cls-1" d="M509.88,168.03c1.64.67,3.33.97,5,.97,5.28,0,10.27-3.15,12.36-8.33l14.99-37.08c2.76-6.84-.53-14.6-7.36-17.36-6.84-2.75-14.6.53-17.36,7.36l-14.99,37.08c-2.76,6.84.53,14.6,7.36,17.36Z"/>
  <path class="cls-1" d="M786.67,533.33h-123.07c10.69-30.03,16.4-61.28,16.4-93.33,0-154.39-125.61-280-280-280S120,285.61,120,440c0,32.05,5.71,63.31,16.4,93.33H13.33c-7.37,0-13.33,5.96-13.33,13.33s5.96,13.33,13.33,13.33h773.33c7.37,0,13.33-5.96,13.33-13.33s-5.96-13.33-13.33-13.33ZM164.56,533.33c-11.88-29.83-17.89-61.19-17.89-93.33,0-139.69,113.64-253.33,253.33-253.33s253.33,113.64,253.33,253.33c0,32.15-6.01,63.51-17.89,93.33H164.56Z"/>
  <path class="cls-1" d="M720,600H80c-7.37,0-13.33,5.96-13.33,13.33s5.96,13.33,13.33,13.33h640c7.37,0,13.33-5.96,13.33-13.33s-5.96-13.33-13.33-13.33Z"/>
  <path class="cls-1" d="M653.33,666.67H146.67c-7.37,0-13.33,5.96-13.33,13.33s5.96,13.33,13.33,13.33h506.67c7.37,0,13.33-5.96,13.33-13.33s-5.96-13.33-13.33-13.33Z"/>
  <path class="cls-1" d="M600,733.33H200c-7.37,0-13.33,5.96-13.33,13.33s5.96,13.33,13.33,13.33h400c7.37,0,13.33-5.96,13.33-13.33s-5.96-13.33-13.33-13.33Z"/>
  <polygon class="cls-1" points="386.67 331.04 386.67 485.52 413.33 485.52 413.33 331.04 483.91 401.61 502.76 382.76 400 280 297.24 382.76 316.09 401.61 386.67 331.04"/>
</svg>