<?xml version="1.0" encoding="UTF-8"?>
<svg id="Capa_1" data-name="Capa 1" xmlns="http://www.w3.org/2000/svg" version="1.1" viewBox="0 0 800 800">
  <defs>
    <style>
      .cls-1 {
        fill: #000;
      }

      .cls-1, .cls-2 {
        stroke-width: 0px;
      }

      .cls-2 {
        fill: #ffdc31;
      }
    </style>
  </defs>
  <g>
    <polygon class="cls-2" points="1548 485.5 1548 400 1583.8 309.1 1625.3 246.8 1687 201.3 1722.7 184.9 1788.9 171 1832 171 1884.6 179.8 1926.9 195 1971.6 220.5 2007.5 251.6 2042.6 296.8 2073.7 368.9 2083.6 440 2068 538.8 2049.8 546.8 1561.3 539.6 1548 485.5"/>
    <path class="cls-1" d="M1814.7,146.7c7.4,0,13.3-6,13.3-13.3V53.3c0-7.4-6-13.3-13.3-13.3s-13.3,6-13.3,13.3v80c0,7.4,6,13.3,13.3,13.3Z"/>
    <path class="cls-1" d="M2108,440c0,7.4,6,13.3,13.3,13.3h80c7.4,0,13.3-6,13.3-13.3s-6-13.3-13.3-13.3h-80c-7.4,0-13.3,6-13.3,13.3Z"/>
    <path class="cls-1" d="M1428,453.3h80c7.4,0,13.3-6,13.3-13.3s-6-13.3-13.3-13.3h-80c-7.4,0-13.3,6-13.3,13.3s6,13.3,13.3,13.3Z"/>
    <path class="cls-1" d="M2031.5,236.5c3.4,0,6.8-1.3,9.4-3.9l76.5-76.5c5.2-5.2,5.2-13.6,0-18.9s-13.6-5.2-18.9,0l-76.5,76.5c-5.2,5.2-5.2,13.6,0,18.9,2.6,2.6,6,3.9,9.4,3.9Z"/>
    <path class="cls-1" d="M1588.4,232.6c2.6,2.6,6,3.9,9.4,3.9s6.8-1.3,9.4-3.9c5.2-5.2,5.2-13.6,0-18.9l-76.5-76.5c-5.2-5.2-13.6-5.2-18.9,0s-5.2,13.6,0,18.9l76.5,76.5Z"/>
    <path class="cls-1" d="M2084.7,325.4c2.2,5.1,7.1,8.1,12.3,8.1s3.5-.3,5.2-1.1l36.8-15.6c6.8-2.9,9.9-10.7,7.1-17.5-2.9-6.8-10.8-9.9-17.5-7.1l-36.8,15.6c-6.8,2.9-9.9,10.7-7.1,17.5Z"/>
    <path class="cls-1" d="M1488.2,322.5l37.1,15c1.6.7,3.3,1,5,1,5.3,0,10.3-3.1,12.4-8.3,2.8-6.8-.5-14.6-7.4-17.4l-37.1-15c-6.8-2.8-14.6.5-17.4,7.4-2.8,6.8.5,14.6,7.4,17.4Z"/>
    <path class="cls-1" d="M1682.6,162.9c2.2,5.1,7.1,8.1,12.3,8.1s3.5-.3,5.2-1.1c6.8-2.9,9.9-10.7,7.1-17.5l-15.6-36.8c-2.9-6.8-10.8-9.9-17.5-7.1-6.8,2.9-9.9,10.7-7.1,17.5l15.6,36.8Z"/>
    <path class="cls-1" d="M1924.5,168c1.6.7,3.3,1,5,1,5.3,0,10.3-3.1,12.4-8.3l15-37.1c2.8-6.8-.5-14.6-7.4-17.4-6.8-2.7-14.6.5-17.4,7.4l-15,37.1c-2.8,6.8.5,14.6,7.4,17.4Z"/>
    <path class="cls-1" d="M2201.3,533.3h-123.1c10.7-30,16.4-61.3,16.4-93.3,0-154.4-125.6-280-280-280s-280,125.6-280,280,5.7,63.3,16.4,93.3h-123.1c-7.4,0-13.3,6-13.3,13.3s6,13.3,13.3,13.3h773.3c7.4,0,13.3-6,13.3-13.3s-6-13.3-13.3-13.3ZM1579.2,533.3c-11.9-29.8-17.9-61.2-17.9-93.3,0-139.7,113.6-253.3,253.3-253.3s253.3,113.6,253.3,253.3-6,63.5-17.9,93.3h-470.9Z"/>
    <path class="cls-1" d="M2134.7,600h-640c-7.4,0-13.3,6-13.3,13.3s6,13.3,13.3,13.3h640c7.4,0,13.3-6,13.3-13.3s-6-13.3-13.3-13.3Z"/>
    <path class="cls-1" d="M2068,666.7h-506.7c-7.4,0-13.3,6-13.3,13.3s6,13.3,13.3,13.3h506.7c7.4,0,13.3-6,13.3-13.3s-6-13.3-13.3-13.3Z"/>
    <path class="cls-1" d="M2014.7,733.3h-400c-7.4,0-13.3,6-13.3,13.3s6,13.3,13.3,13.3h400c7.4,0,13.3-6,13.3-13.3s-6-13.3-13.3-13.3Z"/>
    <polygon class="cls-1" points="1801.3 331 1801.3 485.5 1828 485.5 1828 331 1898.6 401.6 1917.4 382.8 1814.7 280 1711.9 382.8 1730.8 401.6 1801.3 331"/>
  </g>
  <g>
    <polygon class="cls-2" points="133.3 485.5 133.3 400 169.2 309.1 210.7 246.8 272.4 201.3 308 184.9 374.2 171 417.3 171 470 179.8 512.2 195 556.9 220.5 592.8 251.6 627.9 296.8 659 368.9 668.9 440 653.3 538.8 635.1 546.8 146.7 539.6 133.3 485.5"/>
    <path class="cls-1" d="M400,146.7c7.4,0,13.3-6,13.3-13.3V53.3c0-7.4-6-13.3-13.3-13.3s-13.3,6-13.3,13.3v80c0,7.4,6,13.3,13.3,13.3Z"/>
    <path class="cls-1" d="M693.3,440c0,7.4,6,13.3,13.3,13.3h80c7.4,0,13.3-6,13.3-13.3s-6-13.3-13.3-13.3h-80c-7.4,0-13.3,6-13.3,13.3Z"/>
    <path class="cls-1" d="M13.3,453.3h80c7.4,0,13.3-6,13.3-13.3s-6-13.3-13.3-13.3H13.3C6,426.7,0,432.6,0,440s6,13.3,13.3,13.3Z"/>
    <path class="cls-1" d="M616.9,236.5c3.4,0,6.8-1.3,9.4-3.9l76.5-76.5c5.2-5.2,5.2-13.6,0-18.9s-13.6-5.2-18.9,0l-76.5,76.5c-5.2,5.2-5.2,13.6,0,18.9,2.6,2.6,6,3.9,9.4,3.9Z"/>
    <path class="cls-1" d="M173.7,232.6c2.6,2.6,6,3.9,9.4,3.9s6.8-1.3,9.4-3.9c5.2-5.2,5.2-13.6,0-18.9l-76.5-76.5c-5.2-5.2-13.6-5.2-18.9,0s-5.2,13.6,0,18.9l76.5,76.5Z"/>
    <path class="cls-1" d="M670,325.4c2.2,5.1,7.1,8.1,12.3,8.1s3.5-.3,5.2-1.1l36.8-15.6c6.8-2.9,9.9-10.7,7.1-17.5-2.9-6.8-10.8-9.9-17.5-7.1l-36.8,15.6c-6.8,2.9-9.9,10.7-7.1,17.5Z"/>
    <path class="cls-1" d="M73.6,322.5l37.1,15c1.6.7,3.3,1,5,1,5.3,0,10.3-3.1,12.4-8.3,2.8-6.8-.5-14.6-7.4-17.4l-37.1-15c-6.8-2.8-14.6.5-17.4,7.4-2.8,6.8.5,14.6,7.4,17.4Z"/>
    <path class="cls-1" d="M267.9,162.9c2.2,5.1,7.1,8.1,12.3,8.1s3.5-.3,5.2-1.1c6.8-2.9,9.9-10.7,7.1-17.5l-15.6-36.8c-2.9-6.8-10.8-9.9-17.5-7.1-6.8,2.9-9.9,10.7-7.1,17.5l15.6,36.8Z"/>
    <path class="cls-1" d="M509.9,168c1.6.7,3.3,1,5,1,5.3,0,10.3-3.1,12.4-8.3l15-37.1c2.8-6.8-.5-14.6-7.4-17.4-6.8-2.7-14.6.5-17.4,7.4l-15,37.1c-2.8,6.8.5,14.6,7.4,17.4Z"/>
    <path class="cls-1" d="M786.7,533.3h-123.1c10.7-30,16.4-61.3,16.4-93.3,0-154.4-125.6-280-280-280S120,285.6,120,440s5.7,63.3,16.4,93.3H13.3C6,533.3,0,539.3,0,546.7s6,13.3,13.3,13.3h773.3c7.4,0,13.3-6,13.3-13.3s-6-13.3-13.3-13.3ZM164.6,533.3c-11.9-29.8-17.9-61.2-17.9-93.3,0-139.7,113.6-253.3,253.3-253.3s253.3,113.6,253.3,253.3-6,63.5-17.9,93.3H164.6Z"/>
    <path class="cls-1" d="M720,600H80c-7.4,0-13.3,6-13.3,13.3s6,13.3,13.3,13.3h640c7.4,0,13.3-6,13.3-13.3s-6-13.3-13.3-13.3Z"/>
    <path class="cls-1" d="M653.3,666.7H146.7c-7.4,0-13.3,6-13.3,13.3s6,13.3,13.3,13.3h506.7c7.4,0,13.3-6,13.3-13.3s-6-13.3-13.3-13.3Z"/>
    <path class="cls-1" d="M600,733.3H200c-7.4,0-13.3,6-13.3,13.3s6,13.3,13.3,13.3h400c7.4,0,13.3-6,13.3-13.3s-6-13.3-13.3-13.3Z"/>
    <polygon class="cls-1" points="413.3 434.5 413.3 280 386.7 280 386.7 434.5 316.1 363.9 297.2 382.8 400 485.5 502.8 382.8 483.9 363.9 413.3 434.5"/>
  </g>
</svg>